<mxfile host="app.diagrams.net" modified="2023-05-24T15:49:54.138Z" agent="Mozilla/5.0 (Windows NT 10.0; Win64; x64) AppleWebKit/537.36 (KHTML, like Gecko) Chrome/113.0.0.0 Safari/537.36" etag="6JTg6yTlD5QymIpQjsea" version="21.3.3" type="device">
  <diagram name="Página-1" id="E3NSwulCr0hJS30IZ93L">
    <mxGraphModel dx="1877" dy="1750" grid="1" gridSize="10" guides="1" tooltips="1" connect="1" arrows="1" fold="1" page="1" pageScale="1" pageWidth="827" pageHeight="1169" math="0" shadow="0">
      <root>
        <mxCell id="0" />
        <mxCell id="1" parent="0" />
        <mxCell id="YaUu_38EHWYvz68pOoem-1" value="Empleado" style="swimlane;fontStyle=0;childLayout=stackLayout;horizontal=1;startSize=26;fillColor=#dae8fc;horizontalStack=0;resizeParent=1;resizeParentMax=0;resizeLast=0;collapsible=1;marginBottom=0;whiteSpace=wrap;html=1;gradientColor=#7ea6e0;strokeColor=#6c8ebf;" parent="1" vertex="1">
          <mxGeometry x="30" y="220" width="180" height="156" as="geometry" />
        </mxCell>
        <mxCell id="YaUu_38EHWYvz68pOoem-2" value="-Nº Seguridad Social &amp;lt;String&amp;gt;" style="text;strokeColor=none;fillColor=none;align=left;verticalAlign=top;spacingLeft=4;spacingRight=4;overflow=hidden;rotatable=0;points=[[0,0.5],[1,0.5]];portConstraint=eastwest;whiteSpace=wrap;html=1;" parent="YaUu_38EHWYvz68pOoem-1" vertex="1">
          <mxGeometry y="26" width="180" height="26" as="geometry" />
        </mxCell>
        <mxCell id="YaUu_38EHWYvz68pOoem-3" value="-NIF &amp;lt;String&amp;gt;" style="text;strokeColor=none;fillColor=none;align=left;verticalAlign=top;spacingLeft=4;spacingRight=4;overflow=hidden;rotatable=0;points=[[0,0.5],[1,0.5]];portConstraint=eastwest;whiteSpace=wrap;html=1;" parent="YaUu_38EHWYvz68pOoem-1" vertex="1">
          <mxGeometry y="52" width="180" height="26" as="geometry" />
        </mxCell>
        <mxCell id="YaUu_38EHWYvz68pOoem-4" value="-Nombre &amp;lt;String&amp;gt;" style="text;strokeColor=none;fillColor=none;align=left;verticalAlign=top;spacingLeft=4;spacingRight=4;overflow=hidden;rotatable=0;points=[[0,0.5],[1,0.5]];portConstraint=eastwest;whiteSpace=wrap;html=1;" parent="YaUu_38EHWYvz68pOoem-1" vertex="1">
          <mxGeometry y="78" width="180" height="26" as="geometry" />
        </mxCell>
        <mxCell id="YaUu_38EHWYvz68pOoem-5" value="-Telefono &amp;lt;int&amp;gt;" style="text;strokeColor=none;fillColor=none;align=left;verticalAlign=top;spacingLeft=4;spacingRight=4;overflow=hidden;rotatable=0;points=[[0,0.5],[1,0.5]];portConstraint=eastwest;whiteSpace=wrap;html=1;" parent="YaUu_38EHWYvz68pOoem-1" vertex="1">
          <mxGeometry y="104" width="180" height="26" as="geometry" />
        </mxCell>
        <mxCell id="YaUu_38EHWYvz68pOoem-6" value="-CorreoElectronico &amp;lt;String&amp;gt;" style="text;strokeColor=none;fillColor=none;align=left;verticalAlign=top;spacingLeft=4;spacingRight=4;overflow=hidden;rotatable=0;points=[[0,0.5],[1,0.5]];portConstraint=eastwest;whiteSpace=wrap;html=1;" parent="YaUu_38EHWYvz68pOoem-1" vertex="1">
          <mxGeometry y="130" width="180" height="26" as="geometry" />
        </mxCell>
        <mxCell id="YaUu_38EHWYvz68pOoem-7" value="Fijos" style="swimlane;fontStyle=0;childLayout=stackLayout;horizontal=1;startSize=26;fillColor=#d5e8d4;horizontalStack=0;resizeParent=1;resizeParentMax=0;resizeLast=0;collapsible=1;marginBottom=0;whiteSpace=wrap;html=1;gradientColor=#97d077;strokeColor=#82b366;" parent="1" vertex="1">
          <mxGeometry x="214" y="486" width="190" height="52" as="geometry" />
        </mxCell>
        <mxCell id="YaUu_38EHWYvz68pOoem-8" value="-Fecha Incorporacion &amp;lt;String&amp;gt;" style="text;strokeColor=none;fillColor=none;align=left;verticalAlign=top;spacingLeft=4;spacingRight=4;overflow=hidden;rotatable=0;points=[[0,0.5],[1,0.5]];portConstraint=eastwest;whiteSpace=wrap;html=1;" parent="YaUu_38EHWYvz68pOoem-7" vertex="1">
          <mxGeometry y="26" width="190" height="26" as="geometry" />
        </mxCell>
        <mxCell id="YaUu_38EHWYvz68pOoem-11" value="Temporales" style="swimlane;fontStyle=0;childLayout=stackLayout;horizontal=1;startSize=26;fillColor=#d5e8d4;horizontalStack=0;resizeParent=1;resizeParentMax=0;resizeLast=0;collapsible=1;marginBottom=0;whiteSpace=wrap;html=1;gradientColor=#97d077;strokeColor=#82b366;" parent="1" vertex="1">
          <mxGeometry x="-70" y="480" width="140" height="78" as="geometry" />
        </mxCell>
        <mxCell id="YaUu_38EHWYvz68pOoem-12" value="-Fecha Inicio&amp;lt;String&amp;gt;" style="text;strokeColor=none;fillColor=none;align=left;verticalAlign=top;spacingLeft=4;spacingRight=4;overflow=hidden;rotatable=0;points=[[0,0.5],[1,0.5]];portConstraint=eastwest;whiteSpace=wrap;html=1;" parent="YaUu_38EHWYvz68pOoem-11" vertex="1">
          <mxGeometry y="26" width="140" height="26" as="geometry" />
        </mxCell>
        <mxCell id="YaUu_38EHWYvz68pOoem-15" value="-Fecha Fin&amp;lt;String&amp;gt;" style="text;strokeColor=none;fillColor=none;align=left;verticalAlign=top;spacingLeft=4;spacingRight=4;overflow=hidden;rotatable=0;points=[[0,0.5],[1,0.5]];portConstraint=eastwest;whiteSpace=wrap;html=1;" parent="YaUu_38EHWYvz68pOoem-11" vertex="1">
          <mxGeometry y="52" width="140" height="26" as="geometry" />
        </mxCell>
        <mxCell id="YaUu_38EHWYvz68pOoem-16" value="Categoria" style="swimlane;fontStyle=0;childLayout=stackLayout;horizontal=1;startSize=26;fillColor=#e6d0de;horizontalStack=0;resizeParent=1;resizeParentMax=0;resizeLast=0;collapsible=1;marginBottom=0;whiteSpace=wrap;html=1;gradientColor=#d5739d;strokeColor=#996185;" parent="1" vertex="1">
          <mxGeometry x="390" y="268" width="140" height="78" as="geometry" />
        </mxCell>
        <mxCell id="YaUu_38EHWYvz68pOoem-17" value="-Nombre &amp;lt;String&amp;gt;" style="text;strokeColor=none;fillColor=none;align=left;verticalAlign=top;spacingLeft=4;spacingRight=4;overflow=hidden;rotatable=0;points=[[0,0.5],[1,0.5]];portConstraint=eastwest;whiteSpace=wrap;html=1;" parent="YaUu_38EHWYvz68pOoem-16" vertex="1">
          <mxGeometry y="26" width="140" height="26" as="geometry" />
        </mxCell>
        <mxCell id="YaUu_38EHWYvz68pOoem-18" value="-Salario&amp;lt;double&amp;gt;" style="text;strokeColor=none;fillColor=none;align=left;verticalAlign=top;spacingLeft=4;spacingRight=4;overflow=hidden;rotatable=0;points=[[0,0.5],[1,0.5]];portConstraint=eastwest;whiteSpace=wrap;html=1;" parent="YaUu_38EHWYvz68pOoem-16" vertex="1">
          <mxGeometry y="52" width="140" height="26" as="geometry" />
        </mxCell>
        <mxCell id="YaUu_38EHWYvz68pOoem-20" value="Asignaciones" style="swimlane;fontStyle=0;childLayout=stackLayout;horizontal=1;startSize=26;fillColor=#ffcd28;horizontalStack=0;resizeParent=1;resizeParentMax=0;resizeLast=0;collapsible=1;marginBottom=0;whiteSpace=wrap;html=1;gradientColor=#ffa500;strokeColor=#d79b00;" parent="1" vertex="1">
          <mxGeometry x="-230" y="233" width="160" height="104" as="geometry" />
        </mxCell>
        <mxCell id="YaUu_38EHWYvz68pOoem-21" value="-PlusNominal&amp;lt;Double&amp;gt;" style="text;strokeColor=none;fillColor=none;align=left;verticalAlign=top;spacingLeft=4;spacingRight=4;overflow=hidden;rotatable=0;points=[[0,0.5],[1,0.5]];portConstraint=eastwest;whiteSpace=wrap;html=1;" parent="YaUu_38EHWYvz68pOoem-20" vertex="1">
          <mxGeometry y="26" width="160" height="26" as="geometry" />
        </mxCell>
        <mxCell id="5aKBKzG_jOQ1vEQzq4V5-14" value="-Acciones &amp;lt;Boolean&amp;gt;" style="text;strokeColor=none;fillColor=none;align=left;verticalAlign=top;spacingLeft=4;spacingRight=4;overflow=hidden;rotatable=0;points=[[0,0.5],[1,0.5]];portConstraint=eastwest;whiteSpace=wrap;html=1;" parent="YaUu_38EHWYvz68pOoem-20" vertex="1">
          <mxGeometry y="52" width="160" height="26" as="geometry" />
        </mxCell>
        <mxCell id="5aKBKzG_jOQ1vEQzq4V5-24" value="+hora de cierre &amp;lt;String&amp;gt;" style="text;strokeColor=none;fillColor=none;align=left;verticalAlign=top;spacingLeft=4;spacingRight=4;overflow=hidden;rotatable=0;points=[[0,0.5],[1,0.5]];portConstraint=eastwest;whiteSpace=wrap;html=1;" parent="YaUu_38EHWYvz68pOoem-20" vertex="1">
          <mxGeometry y="78" width="160" height="26" as="geometry" />
        </mxCell>
        <mxCell id="YaUu_38EHWYvz68pOoem-24" value="Establecimiento" style="swimlane;fontStyle=0;childLayout=stackLayout;horizontal=1;startSize=26;fillColor=#ffcd28;horizontalStack=0;resizeParent=1;resizeParentMax=0;resizeLast=0;collapsible=1;marginBottom=0;whiteSpace=wrap;html=1;gradientColor=#ffa500;strokeColor=#d79b00;" parent="1" vertex="1">
          <mxGeometry x="-250" y="490" width="140" height="78" as="geometry" />
        </mxCell>
        <mxCell id="yDL3CrLbqVbCQHvt5iNB-10" value="Relation" style="endArrow=open;html=1;endSize=12;startArrow=diamondThin;startSize=14;startFill=0;edgeStyle=orthogonalEdgeStyle;rounded=0;entryX=0.456;entryY=1.054;entryDx=0;entryDy=0;entryPerimeter=0;" edge="1" parent="YaUu_38EHWYvz68pOoem-24" target="5aKBKzG_jOQ1vEQzq4V5-24">
          <mxGeometry relative="1" as="geometry">
            <mxPoint x="50" as="sourcePoint" />
            <mxPoint x="210" as="targetPoint" />
            <Array as="points">
              <mxPoint x="50" y="-10" />
              <mxPoint x="51" y="-10" />
              <mxPoint x="51" y="-76" />
              <mxPoint x="90" y="-76" />
              <mxPoint x="90" y="-130" />
              <mxPoint x="93" y="-130" />
            </Array>
          </mxGeometry>
        </mxCell>
        <mxCell id="yDL3CrLbqVbCQHvt5iNB-11" value="0..n" style="edgeLabel;resizable=0;html=1;align=left;verticalAlign=top;" connectable="0" vertex="1" parent="yDL3CrLbqVbCQHvt5iNB-10">
          <mxGeometry x="-1" relative="1" as="geometry" />
        </mxCell>
        <mxCell id="YaUu_38EHWYvz68pOoem-25" value="-Codigo numerico&amp;lt;Int&amp;gt;" style="text;strokeColor=none;fillColor=none;align=left;verticalAlign=top;spacingLeft=4;spacingRight=4;overflow=hidden;rotatable=0;points=[[0,0.5],[1,0.5]];portConstraint=eastwest;whiteSpace=wrap;html=1;" parent="YaUu_38EHWYvz68pOoem-24" vertex="1">
          <mxGeometry y="26" width="140" height="26" as="geometry" />
        </mxCell>
        <mxCell id="YaUu_38EHWYvz68pOoem-26" value="-Dirección &amp;lt;String&amp;gt;" style="text;strokeColor=none;fillColor=none;align=left;verticalAlign=top;spacingLeft=4;spacingRight=4;overflow=hidden;rotatable=0;points=[[0,0.5],[1,0.5]];portConstraint=eastwest;whiteSpace=wrap;html=1;" parent="YaUu_38EHWYvz68pOoem-24" vertex="1">
          <mxGeometry y="52" width="140" height="26" as="geometry" />
        </mxCell>
        <mxCell id="YaUu_38EHWYvz68pOoem-32" value="Nominas" style="swimlane;fontStyle=0;childLayout=stackLayout;horizontal=1;startSize=26;fillColor=#fa6800;horizontalStack=0;resizeParent=1;resizeParentMax=0;resizeLast=0;collapsible=1;marginBottom=0;whiteSpace=wrap;html=1;fontColor=#000000;strokeColor=#C73500;" parent="1" vertex="1">
          <mxGeometry x="40" y="20" width="160" height="80" as="geometry" />
        </mxCell>
        <mxCell id="YaUu_38EHWYvz68pOoem-33" value="-mesYaño &amp;lt;String&amp;gt;" style="text;strokeColor=none;fillColor=none;align=left;verticalAlign=top;spacingLeft=4;spacingRight=4;overflow=hidden;rotatable=0;points=[[0,0.5],[1,0.5]];portConstraint=eastwest;whiteSpace=wrap;html=1;" parent="YaUu_38EHWYvz68pOoem-32" vertex="1">
          <mxGeometry y="26" width="160" height="26" as="geometry" />
        </mxCell>
        <mxCell id="YaUu_38EHWYvz68pOoem-34" value="-FechaGenerado &amp;lt;String&amp;gt;" style="text;strokeColor=none;fillColor=none;align=left;verticalAlign=top;spacingLeft=4;spacingRight=4;overflow=hidden;rotatable=0;points=[[0,0.5],[1,0.5]];portConstraint=eastwest;whiteSpace=wrap;html=1;" parent="YaUu_38EHWYvz68pOoem-32" vertex="1">
          <mxGeometry y="52" width="160" height="28" as="geometry" />
        </mxCell>
        <mxCell id="YaUu_38EHWYvz68pOoem-36" value="Concepto" style="swimlane;fontStyle=0;childLayout=stackLayout;horizontal=1;startSize=26;fillColor=#fa6800;horizontalStack=0;resizeParent=1;resizeParentMax=0;resizeLast=0;collapsible=1;marginBottom=0;whiteSpace=wrap;html=1;fontColor=#000000;strokeColor=#C73500;" parent="1" vertex="1">
          <mxGeometry x="310" y="10" width="140" height="104" as="geometry" />
        </mxCell>
        <mxCell id="YaUu_38EHWYvz68pOoem-37" value="-ID &amp;lt;String&amp;gt;" style="text;strokeColor=none;fillColor=none;align=left;verticalAlign=top;spacingLeft=4;spacingRight=4;overflow=hidden;rotatable=0;points=[[0,0.5],[1,0.5]];portConstraint=eastwest;whiteSpace=wrap;html=1;" parent="YaUu_38EHWYvz68pOoem-36" vertex="1">
          <mxGeometry y="26" width="140" height="26" as="geometry" />
        </mxCell>
        <mxCell id="YaUu_38EHWYvz68pOoem-38" value="-Nombre &amp;lt;String&amp;gt;" style="text;strokeColor=none;fillColor=none;align=left;verticalAlign=top;spacingLeft=4;spacingRight=4;overflow=hidden;rotatable=0;points=[[0,0.5],[1,0.5]];portConstraint=eastwest;whiteSpace=wrap;html=1;" parent="YaUu_38EHWYvz68pOoem-36" vertex="1">
          <mxGeometry y="52" width="140" height="26" as="geometry" />
        </mxCell>
        <mxCell id="YaUu_38EHWYvz68pOoem-39" value="-Tipo &amp;lt;enum&amp;gt;" style="text;strokeColor=none;fillColor=none;align=left;verticalAlign=top;spacingLeft=4;spacingRight=4;overflow=hidden;rotatable=0;points=[[0,0.5],[1,0.5]];portConstraint=eastwest;whiteSpace=wrap;html=1;" parent="YaUu_38EHWYvz68pOoem-36" vertex="1">
          <mxGeometry y="78" width="140" height="26" as="geometry" />
        </mxCell>
        <mxCell id="5aKBKzG_jOQ1vEQzq4V5-2" value="Retencion" style="swimlane;fontStyle=0;childLayout=stackLayout;horizontal=1;startSize=26;fillColor=#fa6800;horizontalStack=0;resizeParent=1;resizeParentMax=0;resizeLast=0;collapsible=1;marginBottom=0;whiteSpace=wrap;html=1;fontColor=#000000;strokeColor=#C73500;" parent="1" vertex="1">
          <mxGeometry x="-240" y="20" width="180" height="130" as="geometry" />
        </mxCell>
        <mxCell id="5aKBKzG_jOQ1vEQzq4V5-3" value="-Codigo &amp;lt;int&amp;gt;" style="text;strokeColor=none;fillColor=none;align=left;verticalAlign=top;spacingLeft=4;spacingRight=4;overflow=hidden;rotatable=0;points=[[0,0.5],[1,0.5]];portConstraint=eastwest;whiteSpace=wrap;html=1;" parent="5aKBKzG_jOQ1vEQzq4V5-2" vertex="1">
          <mxGeometry y="26" width="180" height="26" as="geometry" />
        </mxCell>
        <mxCell id="5aKBKzG_jOQ1vEQzq4V5-4" value="-Sueldo Inicial &amp;lt;int&amp;gt;" style="text;strokeColor=none;fillColor=none;align=left;verticalAlign=top;spacingLeft=4;spacingRight=4;overflow=hidden;rotatable=0;points=[[0,0.5],[1,0.5]];portConstraint=eastwest;whiteSpace=wrap;html=1;" parent="5aKBKzG_jOQ1vEQzq4V5-2" vertex="1">
          <mxGeometry y="52" width="180" height="26" as="geometry" />
        </mxCell>
        <mxCell id="5aKBKzG_jOQ1vEQzq4V5-5" value="-Sueldo final &amp;lt;int&amp;gt;" style="text;strokeColor=none;fillColor=none;align=left;verticalAlign=top;spacingLeft=4;spacingRight=4;overflow=hidden;rotatable=0;points=[[0,0.5],[1,0.5]];portConstraint=eastwest;whiteSpace=wrap;html=1;" parent="5aKBKzG_jOQ1vEQzq4V5-2" vertex="1">
          <mxGeometry y="78" width="180" height="26" as="geometry" />
        </mxCell>
        <mxCell id="5aKBKzG_jOQ1vEQzq4V5-6" value="-porcentaje de retencion &amp;lt;int&amp;gt;" style="text;strokeColor=none;fillColor=none;align=left;verticalAlign=top;spacingLeft=4;spacingRight=4;overflow=hidden;rotatable=0;points=[[0,0.5],[1,0.5]];portConstraint=eastwest;whiteSpace=wrap;html=1;" parent="5aKBKzG_jOQ1vEQzq4V5-2" vertex="1">
          <mxGeometry y="104" width="180" height="26" as="geometry" />
        </mxCell>
        <mxCell id="5aKBKzG_jOQ1vEQzq4V5-32" value="Extends" style="endArrow=block;endSize=16;endFill=0;html=1;rounded=0;entryX=0.437;entryY=1.162;entryDx=0;entryDy=0;entryPerimeter=0;exitX=0.5;exitY=0;exitDx=0;exitDy=0;" parent="1" source="YaUu_38EHWYvz68pOoem-11" target="YaUu_38EHWYvz68pOoem-6" edge="1">
          <mxGeometry width="160" relative="1" as="geometry">
            <mxPoint x="-20" y="470" as="sourcePoint" />
            <mxPoint x="140" y="470" as="targetPoint" />
          </mxGeometry>
        </mxCell>
        <mxCell id="5aKBKzG_jOQ1vEQzq4V5-33" value="Extends" style="endArrow=block;endSize=16;endFill=0;html=1;rounded=0;entryX=0.574;entryY=1.069;entryDx=0;entryDy=0;entryPerimeter=0;exitX=0.25;exitY=0;exitDx=0;exitDy=0;" parent="1" source="YaUu_38EHWYvz68pOoem-7" target="YaUu_38EHWYvz68pOoem-6" edge="1">
          <mxGeometry width="160" relative="1" as="geometry">
            <mxPoint x="10" y="490" as="sourcePoint" />
            <mxPoint x="119" y="390" as="targetPoint" />
          </mxGeometry>
        </mxCell>
        <mxCell id="5aKBKzG_jOQ1vEQzq4V5-34" value="1,M" style="text;html=1;strokeColor=none;fillColor=none;align=center;verticalAlign=middle;whiteSpace=wrap;rounded=0;" parent="1" vertex="1">
          <mxGeometry y="268" width="30" height="30" as="geometry" />
        </mxCell>
        <mxCell id="5aKBKzG_jOQ1vEQzq4V5-36" value="1" style="text;html=1;strokeColor=none;fillColor=none;align=center;verticalAlign=middle;whiteSpace=wrap;rounded=0;" parent="1" vertex="1">
          <mxGeometry x="-70" y="260" width="30" height="30" as="geometry" />
        </mxCell>
        <mxCell id="5aKBKzG_jOQ1vEQzq4V5-37" value="1" style="text;html=1;strokeColor=none;fillColor=none;align=center;verticalAlign=middle;whiteSpace=wrap;rounded=0;" parent="1" vertex="1">
          <mxGeometry x="-190" y="460" width="40" height="20" as="geometry" />
        </mxCell>
        <mxCell id="5aKBKzG_jOQ1vEQzq4V5-38" value="1" style="text;html=1;strokeColor=none;fillColor=none;align=center;verticalAlign=middle;whiteSpace=wrap;rounded=0;" parent="1" vertex="1">
          <mxGeometry x="-140" y="346" width="20" height="30" as="geometry" />
        </mxCell>
        <mxCell id="5aKBKzG_jOQ1vEQzq4V5-41" value="1,*" style="text;html=1;strokeColor=none;fillColor=none;align=center;verticalAlign=middle;whiteSpace=wrap;rounded=0;" parent="1" vertex="1">
          <mxGeometry x="214" y="260" width="36" height="30" as="geometry" />
        </mxCell>
        <mxCell id="5aKBKzG_jOQ1vEQzq4V5-42" value="1,*" style="text;html=1;strokeColor=none;fillColor=none;align=center;verticalAlign=middle;whiteSpace=wrap;rounded=0;" parent="1" vertex="1">
          <mxGeometry x="120" y="104" width="60" height="30" as="geometry" />
        </mxCell>
        <mxCell id="5aKBKzG_jOQ1vEQzq4V5-43" value="1,*" style="text;html=1;strokeColor=none;fillColor=none;align=center;verticalAlign=middle;whiteSpace=wrap;rounded=0;" parent="1" vertex="1">
          <mxGeometry x="120" y="190" width="60" height="30" as="geometry" />
        </mxCell>
        <mxCell id="5aKBKzG_jOQ1vEQzq4V5-47" value="1" style="text;html=1;strokeColor=none;fillColor=none;align=center;verticalAlign=middle;whiteSpace=wrap;rounded=0;" parent="1" vertex="1">
          <mxGeometry x="-60" y="50" width="30" height="30" as="geometry" />
        </mxCell>
        <mxCell id="5aKBKzG_jOQ1vEQzq4V5-48" value="1" style="text;html=1;strokeColor=none;fillColor=none;align=center;verticalAlign=middle;whiteSpace=wrap;rounded=0;" parent="1" vertex="1">
          <mxGeometry x="10" y="45" width="30" height="30" as="geometry" />
        </mxCell>
        <mxCell id="5aKBKzG_jOQ1vEQzq4V5-50" value="Linea" style="swimlane;fontStyle=0;childLayout=stackLayout;horizontal=1;startSize=26;fillColor=#fa6800;horizontalStack=0;resizeParent=1;resizeParentMax=0;resizeLast=0;collapsible=1;marginBottom=0;whiteSpace=wrap;html=1;fontColor=#000000;strokeColor=#C73500;" parent="1" vertex="1">
          <mxGeometry x="60" y="-160" width="140" height="78" as="geometry" />
        </mxCell>
        <mxCell id="5aKBKzG_jOQ1vEQzq4V5-52" value="- ID &amp;lt;int&amp;gt;" style="text;strokeColor=none;fillColor=none;align=left;verticalAlign=top;spacingLeft=4;spacingRight=4;overflow=hidden;rotatable=0;points=[[0,0.5],[1,0.5]];portConstraint=eastwest;whiteSpace=wrap;html=1;" parent="5aKBKzG_jOQ1vEQzq4V5-50" vertex="1">
          <mxGeometry y="26" width="140" height="26" as="geometry" />
        </mxCell>
        <mxCell id="5aKBKzG_jOQ1vEQzq4V5-57" value="- Importe &amp;lt;int&amp;gt;" style="text;strokeColor=none;fillColor=none;align=left;verticalAlign=top;spacingLeft=4;spacingRight=4;overflow=hidden;rotatable=0;points=[[0,0.5],[1,0.5]];portConstraint=eastwest;whiteSpace=wrap;html=1;" parent="5aKBKzG_jOQ1vEQzq4V5-50" vertex="1">
          <mxGeometry y="52" width="140" height="26" as="geometry" />
        </mxCell>
        <mxCell id="5aKBKzG_jOQ1vEQzq4V5-55" value="1" style="text;html=1;strokeColor=none;fillColor=none;align=center;verticalAlign=middle;whiteSpace=wrap;rounded=0;" parent="1" vertex="1">
          <mxGeometry x="140" y="-82" width="60" height="30" as="geometry" />
        </mxCell>
        <mxCell id="5aKBKzG_jOQ1vEQzq4V5-56" value="1,*" style="text;html=1;strokeColor=none;fillColor=none;align=center;verticalAlign=middle;whiteSpace=wrap;rounded=0;" parent="1" vertex="1">
          <mxGeometry x="130" y="-10" width="60" height="30" as="geometry" />
        </mxCell>
        <mxCell id="yDL3CrLbqVbCQHvt5iNB-1" value="Relation" style="endArrow=open;html=1;endSize=12;startArrow=diamondThin;startSize=14;startFill=0;edgeStyle=orthogonalEdgeStyle;rounded=0;exitX=0;exitY=1;exitDx=0;exitDy=0;" edge="1" parent="1" source="5aKBKzG_jOQ1vEQzq4V5-43">
          <mxGeometry relative="1" as="geometry">
            <mxPoint x="-20" y="190" as="sourcePoint" />
            <mxPoint x="120" y="98" as="targetPoint" />
            <Array as="points">
              <mxPoint x="120" y="98" />
            </Array>
          </mxGeometry>
        </mxCell>
        <mxCell id="yDL3CrLbqVbCQHvt5iNB-13" value="Relation" style="endArrow=open;html=1;endSize=12;startArrow=diamondThin;startSize=14;startFill=0;edgeStyle=orthogonalEdgeStyle;rounded=0;entryX=1;entryY=0.5;entryDx=0;entryDy=0;exitX=-0.004;exitY=0.815;exitDx=0;exitDy=0;exitPerimeter=0;" edge="1" parent="1" source="YaUu_38EHWYvz68pOoem-17" target="YaUu_38EHWYvz68pOoem-4">
          <mxGeometry relative="1" as="geometry">
            <mxPoint x="380" y="263" as="sourcePoint" />
            <mxPoint x="400" y="330" as="targetPoint" />
          </mxGeometry>
        </mxCell>
        <mxCell id="yDL3CrLbqVbCQHvt5iNB-14" value="0..n" style="edgeLabel;resizable=0;html=1;align=left;verticalAlign=top;" connectable="0" vertex="1" parent="yDL3CrLbqVbCQHvt5iNB-13">
          <mxGeometry x="-1" relative="1" as="geometry" />
        </mxCell>
        <mxCell id="yDL3CrLbqVbCQHvt5iNB-15" value="1" style="edgeLabel;resizable=0;html=1;align=right;verticalAlign=top;" connectable="0" vertex="1" parent="yDL3CrLbqVbCQHvt5iNB-13">
          <mxGeometry x="1" relative="1" as="geometry" />
        </mxCell>
        <mxCell id="yDL3CrLbqVbCQHvt5iNB-19" value="Relation" style="endArrow=open;html=1;endSize=12;startArrow=diamondThin;startSize=14;startFill=0;edgeStyle=orthogonalEdgeStyle;rounded=0;exitX=1;exitY=0.5;exitDx=0;exitDy=0;entryX=-0.021;entryY=0.185;entryDx=0;entryDy=0;entryPerimeter=0;" edge="1" parent="1" source="5aKBKzG_jOQ1vEQzq4V5-24" target="YaUu_38EHWYvz68pOoem-5">
          <mxGeometry relative="1" as="geometry">
            <mxPoint x="-130" y="390" as="sourcePoint" />
            <mxPoint x="-20" y="390" as="targetPoint" />
          </mxGeometry>
        </mxCell>
        <mxCell id="yDL3CrLbqVbCQHvt5iNB-20" value="0..n" style="edgeLabel;resizable=0;html=1;align=left;verticalAlign=top;" connectable="0" vertex="1" parent="yDL3CrLbqVbCQHvt5iNB-19">
          <mxGeometry x="-1" relative="1" as="geometry" />
        </mxCell>
        <mxCell id="yDL3CrLbqVbCQHvt5iNB-21" value="1" style="edgeLabel;resizable=0;html=1;align=right;verticalAlign=top;" connectable="0" vertex="1" parent="yDL3CrLbqVbCQHvt5iNB-19">
          <mxGeometry x="1" relative="1" as="geometry" />
        </mxCell>
        <mxCell id="yDL3CrLbqVbCQHvt5iNB-4" value="Relation" style="endArrow=open;html=1;endSize=12;startArrow=diamondThin;startSize=14;startFill=0;edgeStyle=orthogonalEdgeStyle;rounded=0;entryX=0;entryY=0.5;entryDx=0;entryDy=0;exitX=1;exitY=0.5;exitDx=0;exitDy=0;" edge="1" parent="1" source="5aKBKzG_jOQ1vEQzq4V5-4" target="YaUu_38EHWYvz68pOoem-34">
          <mxGeometry relative="1" as="geometry">
            <mxPoint x="-10" y="130" as="sourcePoint" />
            <mxPoint x="150" y="130" as="targetPoint" />
            <Array as="points">
              <mxPoint x="-50" y="85" />
              <mxPoint x="-50" y="80" />
              <mxPoint x="-60" y="80" />
              <mxPoint x="-60" y="86" />
            </Array>
          </mxGeometry>
        </mxCell>
        <mxCell id="yDL3CrLbqVbCQHvt5iNB-25" value="Relation" style="endArrow=open;html=1;endSize=12;startArrow=diamondThin;startSize=14;startFill=0;edgeStyle=orthogonalEdgeStyle;rounded=0;exitX=0.357;exitY=1.077;exitDx=0;exitDy=0;exitPerimeter=0;entryX=0.5;entryY=0;entryDx=0;entryDy=0;" edge="1" parent="1" source="5aKBKzG_jOQ1vEQzq4V5-57" target="YaUu_38EHWYvz68pOoem-32">
          <mxGeometry relative="1" as="geometry">
            <mxPoint x="100" y="-30" as="sourcePoint" />
            <mxPoint x="260" y="-30" as="targetPoint" />
            <Array as="points">
              <mxPoint x="120" y="-80" />
            </Array>
          </mxGeometry>
        </mxCell>
        <mxCell id="yDL3CrLbqVbCQHvt5iNB-29" value="1" style="text;html=1;strokeColor=none;fillColor=none;align=center;verticalAlign=middle;whiteSpace=wrap;rounded=0;" vertex="1" parent="1">
          <mxGeometry x="360" y="270" width="30" height="30" as="geometry" />
        </mxCell>
        <mxCell id="yDL3CrLbqVbCQHvt5iNB-30" value="Relation" style="endArrow=open;html=1;endSize=12;startArrow=diamondThin;startSize=14;startFill=0;edgeStyle=orthogonalEdgeStyle;rounded=0;entryX=1;entryY=0.5;entryDx=0;entryDy=0;" edge="1" parent="1" target="YaUu_38EHWYvz68pOoem-37">
          <mxGeometry relative="1" as="geometry">
            <mxPoint x="200" y="-110" as="sourcePoint" />
            <mxPoint x="360" y="-110" as="targetPoint" />
            <Array as="points">
              <mxPoint x="230" y="-110" />
              <mxPoint x="230" y="-36" />
              <mxPoint x="480" y="-36" />
              <mxPoint x="480" y="49" />
            </Array>
          </mxGeometry>
        </mxCell>
        <mxCell id="yDL3CrLbqVbCQHvt5iNB-31" value="1" style="edgeLabel;resizable=0;html=1;align=left;verticalAlign=top;" connectable="0" vertex="1" parent="yDL3CrLbqVbCQHvt5iNB-30">
          <mxGeometry x="-1" relative="1" as="geometry" />
        </mxCell>
        <mxCell id="yDL3CrLbqVbCQHvt5iNB-32" value="1" style="edgeLabel;resizable=0;html=1;align=right;verticalAlign=top;" connectable="0" vertex="1" parent="yDL3CrLbqVbCQHvt5iNB-30">
          <mxGeometry x="1" relative="1" as="geometry" />
        </mxCell>
      </root>
    </mxGraphModel>
  </diagram>
</mxfile>
